<svg width="57" height="56" viewBox="0 0 57 56" fill="none" xmlns="http://www.w3.org/2000/svg">
<rect width="56.6202" height="55.7623" rx="10" fill="#F6F8FF"/>
<path d="M37.0578 17.7104H18.172C17.5054 17.7104 17.061 17.266 17.061 16.5995C17.061 15.9329 17.5054 15.4885 18.172 15.4885H37.0578C37.7243 15.4885 38.1687 15.9329 38.1687 16.5995C38.1687 17.266 37.7243 17.7104 37.0578 17.7104Z" fill="#F2D4B7"/>
<path d="M43.4334 43.2774L40.3425 40.2109C41.1152 39.1158 41.4464 37.9111 41.4464 36.5969C41.4464 32.9828 38.4659 30.0259 34.9334 30.0259C31.401 30.0259 28.3101 32.9828 28.3101 36.5969C28.3101 40.2109 31.2906 43.1679 34.823 43.1679C36.1477 43.1679 37.4724 42.7298 38.4659 42.0727L41.5568 45.1392C41.9983 45.5773 42.8815 45.5773 43.323 45.1392C43.875 44.5916 43.875 43.7155 43.4334 43.2774Z" fill="#F2D4B7"/>
<path d="M26.1653 36.276C26.1653 31.4229 30.2364 27.4521 35.099 27.4521C36.3429 27.4521 37.4738 27.6727 38.6046 28.1139V19.7312C38.6046 19.0694 38.1523 18.6282 37.4738 18.6282H20.5111H18.2494C17.0055 18.6282 15.9878 17.6355 15.9878 16.4222C15.9878 15.2089 17.0055 14.2162 18.2494 14.2162H37.4738C38.1523 14.2162 38.6046 13.775 38.6046 13.1132C38.6046 12.4514 38.1523 12.0103 37.4738 12.0103H18.2494C15.7616 12.0103 13.7261 13.9956 13.7261 16.4222V38.482C13.7261 40.9086 15.7616 42.894 18.2494 42.894H20.5111H29.3317C27.4093 41.2395 26.1653 38.9232 26.1653 36.276Z" fill="#577CFF"/>
</svg>
