<svg width="57" height="56" viewBox="0 0 57 56" fill="none" xmlns="http://www.w3.org/2000/svg">
<rect width="56.6202" height="55.7623" rx="10" fill="#F6F8FF"/>
<path d="M35.6555 20.5083C37.4262 20.1151 39.7326 18.3576 40.0835 17.4921C40.2894 16.9854 39.2628 16.1938 38.9884 15.8745C38.3604 15.1461 38.6137 14.7873 38.8565 13.9191C39.1335 12.9321 38.4765 11.8423 37.5449 11.4148C36.6134 10.9873 35.4998 11.1219 34.563 11.5388C33.6262 11.9558 32.8266 12.626 32.0429 13.2857C31.4703 12.9242 30.5572 11.3277 29.0795 12.3648C28.0582 13.0799 27.9659 14.6368 28.0978 15.8798C28.4065 18.7482 29.1138 20.2365 30.4464 20.6376C32.13 21.1443 33.993 20.8778 35.6555 20.5083Z" fill="#577CFF"/>
<path d="M38.5327 12.2571C38.3084 16.123 34.5375 18.688 32.7483 19.8174L33.9094 20.8149C33.9094 20.8149 34.6457 20.8308 35.6537 20.5088C37.3822 19.9599 39.9076 18.4083 40.0817 17.4926C40.3377 16.16 38.9708 16.4502 38.662 15.3973C38.5011 14.8405 39.4458 13.7876 38.5327 12.2571ZM32.0464 13.2889C32.0464 13.2889 31.3735 12.6001 30.8747 12.2861C30.6267 12.7532 30.4499 13.2599 30.3628 13.7823C30.2071 14.7007 30.3628 16.0043 30.7296 16.9754C30.7876 17.1258 31.004 17.102 31.0278 16.9437C31.3444 14.8564 32.0464 13.2889 32.0464 13.2889Z" fill="#1064E2"/>
<path d="M27.3433 20.1686C27.3433 20.1686 19.1127 21.0579 15.3998 28.2039C11.6869 35.35 14.843 39.683 18.1838 41.2611C21.5246 42.8391 29.9426 43.3959 35.4183 42.0976C40.8939 40.7993 42.2635 38.1076 42.0075 35.5083C41.6354 31.7136 38.1099 29.3809 38.1099 29.3809C38.1099 29.3809 38.2498 24.6942 34.6134 21.6516C31.3861 18.9494 27.3433 20.1686 27.3433 20.1686Z" fill="#577CFF"/>
<path d="M30.7214 32.1929C28.956 29.9657 26.8713 29.6675 26.2037 28.868C25.8395 28.4325 25.6258 27.9919 25.7076 27.4456C25.7947 26.8651 26.4676 26.464 26.9901 26.3663C27.5997 26.2502 29.0537 26.3109 30.2755 27.4746C30.5657 27.7491 30.4602 28.1766 30.4523 28.5592C30.4312 29.3799 31.6055 30.1768 32.5554 29.4907C33.5081 28.802 32.7771 27.2688 32.1623 26.5246C31.6978 25.9626 30.0142 24.7249 27.9216 24.5297C27.3331 24.4742 24.9661 24.1233 23.5991 26.7226C23.2059 27.4694 23.0608 29.2743 25.1191 30.7996C25.5493 31.1189 27.7817 32.2536 28.4019 32.9899C29.4759 34.2644 28.7396 35.386 27.9005 35.5337C25.6126 35.9348 24.3169 34.6972 24.0768 34.019C23.9052 33.5361 24.0847 33.0136 23.863 32.5597C23.6361 32.0927 23.1716 31.9079 22.6808 32.0636C21.0711 32.5756 21.583 34.3357 22.2955 35.3042C23.0582 36.3412 23.995 36.9666 25.0479 37.3097C28.9771 38.5896 30.8666 36.5682 31.1964 35.0878C31.4392 34.0032 31.4128 33.0638 30.7214 32.1929Z" fill="white"/>
<path d="M29.7698 23.0266C26.4263 30.1674 25.8511 39.1844 25.8511 39.1844" stroke="white" stroke-width="2.25" stroke-miterlimit="10"/>
<path d="M32.5454 18.5314C34.7726 19.257 35.2661 21.2705 35.1051 21.8194C34.9125 22.4633 32.4451 19.9563 28.7771 20.1068C27.4946 20.1595 27.8667 19.3732 28.4604 18.9193C29.2442 18.3202 30.561 17.8875 32.5454 18.5314Z" fill="#6D4C41"/>
<path d="M32.5454 18.5314C34.7726 19.257 35.2661 21.2705 35.1051 21.8194C34.9125 22.4633 32.4451 19.9563 28.7771 20.1068C27.4946 20.1595 27.8667 19.3732 28.4604 18.9193C29.2442 18.3202 30.561 17.8875 32.5454 18.5314Z" fill="#F7DECE"/>
<path d="M36.4556 25.6299C36.7353 25.4373 37.6747 25.7698 37.9386 27.6091C38.0679 28.5089 38.1075 29.3797 38.1075 29.3797C38.1075 29.3797 36.9992 28.3849 36.6324 27.6856C36.1706 26.8016 35.9911 25.9466 36.4556 25.6299Z" fill="#1064E2"/>
</svg>
