<svg width="57" height="57" viewBox="0 0 57 57" fill="none" xmlns="http://www.w3.org/2000/svg">
<rect width="56.6202" height="56.6202" rx="10" fill="#F6F8FF"/>
<path d="M34.23 35.8687V31.2097H21.9204V35.8687L28.0752 41.1932L34.23 35.8687Z" fill="#E6AF78" fill-opacity="0.56"/>
<path d="M43.7463 38.0482L35.284 36.1104C35.1561 36.0811 35.0386 36.0314 34.9286 35.9712L28.0746 39.8624L21.4879 35.783C21.3173 35.9392 21.1057 36.0553 20.8653 36.1104L12.4029 38.0483C11.1672 38.3313 10.2939 39.4044 10.2939 40.6398V45.8526C10.2939 46.5878 10.9063 47.1837 11.6617 47.1837H44.4874C45.2428 47.1837 45.8551 46.5878 45.8551 45.8526V40.6398C45.8552 39.4043 44.982 38.3311 43.7463 38.0482Z" fill="#577CFF"/>
<path d="M21.9204 31.2098V36.1254C29.6738 38.8441 34.23 32.0398 34.23 32.0398V31.2097H21.9204V31.2098Z" fill="#D29B6E" fill-opacity="0.34"/>
<path d="M19.186 15.9026L19.782 28.6625C19.8376 29.8545 20.4382 30.96 21.419 31.6759L24.2466 33.7399C24.9569 34.2583 25.8207 34.5387 26.7086 34.5387H29.4441C30.3319 34.5387 31.1958 34.2584 31.906 33.7399L34.7337 31.6759C35.7145 30.9599 36.3151 29.8546 36.3707 28.6625L36.9666 15.9026H19.186Z" fill="#F7DECE"/>
<path d="M26.0248 18.5649C28.7603 18.5649 32.8635 17.8994 33.8367 15.9026H19.186L19.782 28.6625C19.8376 29.8545 20.4382 30.9599 21.4191 31.6759L24.2467 33.7399C24.957 34.2583 25.8208 34.5387 26.7086 34.5387H28.0764C26.7086 34.5387 23.9731 31.8763 23.9731 28.5485C23.9731 26.9209 23.9731 22.5584 23.9731 20.5616C23.9731 19.896 24.657 18.5649 26.0248 18.5649Z" fill="#F2D4B7"/>
<path d="M15.3154 42.863L10.884 38.9888C10.5126 39.4464 10.2949 40.0222 10.2949 40.6387V45.8515C10.2949 46.5867 10.9073 47.1826 11.6626 47.1826H16.4497V45.3387C16.4497 44.3942 16.0373 43.4941 15.3154 42.863Z" fill="#7F9BFF"/>
<path d="M40.8351 42.863L45.2665 38.9888C45.6378 39.4464 45.8555 40.0222 45.8555 40.6387V45.8515C45.8555 46.5867 45.2431 47.1826 44.4878 47.1826H39.7007V45.3387C39.7007 44.3942 40.1131 43.4941 40.8351 42.863Z" fill="#7F9BFF"/>
<path d="M21.8217 34.3879L28.0726 39.8632C28.0726 39.8632 26.322 40.7233 24.1617 42.4568C23.7161 42.8144 23.042 42.6695 22.803 42.1578L19.8662 35.8698L20.7953 34.5136C21.0265 34.1758 21.5117 34.1165 21.8217 34.3879Z" fill="#7F9BFF"/>
<path d="M34.3241 34.3879L28.0732 39.8632C28.0732 39.8632 29.8238 40.7233 31.9841 42.4568C32.4297 42.8144 33.1038 42.6695 33.3428 42.1578L36.2796 35.8698L35.3506 34.5136C35.1193 34.1758 34.634 34.1165 34.3241 34.3879Z" fill="#7F9BFF"/>
<path d="M32.2188 11.4931L32.8598 15.9025C35.7864 16.4722 36.2082 20.9421 36.2689 22.2188C36.2799 22.4505 36.3559 22.6742 36.4851 22.8691L37.6017 24.5549C37.6017 24.5549 37.2195 21.7678 38.9694 19.8959C38.9694 19.8959 39.5704 8.83075 32.2188 11.4931Z" fill="#404040"/>
<path d="M19.8402 10.3003L20.8517 10.9728C16.2783 14.259 17.1331 19.8956 17.1331 19.8956C18.5008 21.2268 18.5008 24.5546 18.5008 24.5546L19.8685 23.2235C19.8685 23.2235 19.3407 19.3782 21.9201 17.8989C24.3137 16.5262 26.408 17.2334 28.5451 17.2334C34.2725 17.2334 35.8754 15.1326 35.5975 12.5744C35.4537 11.2506 33.3742 8.49321 28.075 8.5809C25.9364 8.61626 21.9203 9.24646 19.8402 10.3003Z" fill="#242424"/>
</svg>
